<svg width="41" height="40" viewBox="0 0 41 40" fill="none" xmlns="http://www.w3.org/2000/svg">
<path d="M40.7495 10.7863C40.4946 10.4234 40.1525 10.2419 39.7232 10.2419H12.3959L10.3031 3.10484C10.1153 2.45968 9.86037 1.9086 9.5384 1.45161C9.21643 0.994624 8.87434 0.672043 8.51212 0.483871C8.1499 0.295699 7.83464 0.168011 7.56633 0.100806C7.29802 0.0336022 7.02971 0 6.7614 0H1.24764C0.898837 0 0.603696 0.120968 0.362218 0.362903C0.120739 0.604839 0 0.913978 0 1.29032C0 1.50538 0.0536619 1.71371 0.160986 1.91532C0.268309 2.11694 0.422587 2.27151 0.62382 2.37903C0.825052 2.48656 1.03299 2.54032 1.24764 2.54032H6.7614C6.86872 2.54032 6.96934 2.55376 7.06325 2.58065C7.15715 2.60753 7.2846 2.72177 7.44559 2.92339C7.60657 3.125 7.74073 3.42742 7.84805 3.83065L14.9717 30.0403C15.0253 30.2016 15.1125 30.3562 15.2333 30.504C15.354 30.6519 15.4949 30.7661 15.6559 30.8468C15.8168 30.9274 15.9912 30.9677 16.1791 30.9677H33.5655C33.8338 30.9677 34.082 30.8871 34.3101 30.7258C34.5381 30.5645 34.6924 30.3629 34.7729 30.121L40.9306 11.9758C41.0648 11.5457 41.0044 11.1492 40.7495 10.7863ZM32.6801 28.3871H17.1852L13.0801 12.8226H37.8719L32.6801 28.3871ZM30.1446 33.5484C29.2591 33.5484 28.5012 33.8642 27.8706 34.496C27.2401 35.1277 26.9249 35.8871 26.9249 36.7742C26.9249 37.6613 27.2401 38.4207 27.8706 39.0524C28.5012 39.6841 29.2591 40 30.1446 40C31.03 40 31.788 39.6841 32.4185 39.0524C33.049 38.4207 33.3643 37.6613 33.3643 36.7742C33.3643 35.8871 33.049 35.1277 32.4185 34.496C31.788 33.8642 31.03 33.5484 30.1446 33.5484ZM18.5536 33.5484C17.9633 33.5484 17.42 33.6962 16.9236 33.9919C16.4272 34.2876 16.0382 34.6774 15.7565 35.1613C15.4747 35.6452 15.3339 36.1828 15.3339 36.7742C15.3339 37.6613 15.6491 38.4207 16.2797 39.0524C16.9102 39.6841 17.6682 40 18.5536 40C19.439 40 20.197 39.6841 20.8275 39.0524C21.4581 38.4207 21.7733 37.6613 21.7733 36.7742C21.7733 36.5591 21.7532 36.3441 21.7129 36.129C21.6727 35.914 21.6123 35.7124 21.5318 35.5242C21.4513 35.336 21.3507 35.1546 21.23 34.9798C21.1092 34.8051 20.9751 34.6438 20.8275 34.496C20.68 34.3481 20.519 34.2137 20.3446 34.0927C20.1702 33.9718 19.9891 33.871 19.8012 33.7903C19.6134 33.7097 19.4122 33.6492 19.1975 33.6089C18.9829 33.5685 18.7682 33.5484 18.5536 33.5484Z" fill="black"/>
</svg>
